<svg id="Layer_1" data-name="Layer 1" xmlns="http://www.w3.org/2000/svg" viewBox="0 0 231.62 60.94"><defs><style>.cls-1{font-size:13.5px;font-family:Geomanist-Light, Geomanist;letter-spacing:0.05em;}.cls-1,.cls-3{fill:#1e2527;}.cls-2{fill:#d87a5f;}</style></defs><title>logo</title><g id="_3" data-name="3"><text class="cls-1" transform="translate(0 57.96)">0% Commissions on Bookings</text><path class="cls-2" d="M216.93,203.24h13.8a.9.9,0,0,1,.91.91v4.45a.9.9,0,0,1-.91.91h-19.9a.9.9,0,0,1-.91-.91V170.51a.9.9,0,0,1,.91-.91H216a.9.9,0,0,1,.91.91Z" transform="translate(-209.18 -168.18)"/><path class="cls-2" d="M281.41,192.39a13.39,13.39,0,0,1,12.37-16.24,13.36,13.36,0,0,1,10.44,4.17,2.09,2.09,0,0,0,1.52.63h5.63a.72.72,0,0,0,.62-1.08,20,20,0,0,0-36.54,3.58l.5.9A44.79,44.79,0,0,0,281.41,192.39Zm24.4,5.63a2.09,2.09,0,0,0-1.53.64,13.36,13.36,0,0,1-9.79,4.25,13.05,13.05,0,0,1-3.31-.41h0c-.76-.08-8.06-1.26-16.15-15.42-6.9-12.06-13.9-16.21-19-17a20,20,0,1,0,13.35,28.1,3.52,3.52,0,0,0-.25-3.42c-1.3-2-3.21-5.08-4.5-7a13.8,13.8,0,0,1,.12,1.77,13.43,13.43,0,1,1-10.62-13.1c1.42.32,8.24,2.38,14.12,12.69,6.18,10.84,13.88,18.41,20.63,19.6A20,20,0,0,0,312,199.1a.72.72,0,0,0-.63-1.08Z" transform="translate(-209.18 -168.18)"/><path class="cls-2" d="M318,209.51a.9.9,0,0,1-.91-.91V170.51a.9.9,0,0,1,.91-.91h5.19a.9.9,0,0,1,.91.91v15.56l15-15.79a2,2,0,0,1,1.54-.68h7a.49.49,0,0,1,.46.46,1.13,1.13,0,0,1-.34.8l-17.62,18.07,18.81,19.21a1.16,1.16,0,0,1,.34.86.51.51,0,0,1-.51.51h-7a2,2,0,0,1-1.54-.68l-16.19-17v16.82a.9.9,0,0,1-.91.91Z" transform="translate(-209.18 -168.18)"/><path class="cls-3" d="M362.94,175.87H352.68a.9.9,0,0,1-.91-.91v-4.45a.9.9,0,0,1,.91-.91h27.65a.9.9,0,0,1,.91.91V175a.9.9,0,0,1-.91.91H370V208.6a.9.9,0,0,1-.91.91h-5.19a.9.9,0,0,1-.91-.91Z" transform="translate(-209.18 -168.18)"/><path class="cls-3" d="M397,186.13a1,1,0,0,1-1.08.74,7.86,7.86,0,0,0-1.77-.23c-2.74,0-5.13,1.2-5.93,3.08V208.6a.9.9,0,0,1-.91.91h-4.9a.9.9,0,0,1-.91-.91V181.92a.9.9,0,0,1,.91-.91H385a1.23,1.23,0,0,1,1.2.86l.51,1.37a12.87,12.87,0,0,1,7.87-2.68,15.5,15.5,0,0,1,2.45.23.91.91,0,0,1,.74,1.08Z" transform="translate(-209.18 -168.18)"/><path class="cls-3" d="M404.21,168.18a3.84,3.84,0,0,1,3.88,3.88,3.88,3.88,0,1,1-3.88-3.88Zm3.36,40.42a.9.9,0,0,1-.91.91h-5a.9.9,0,0,1-.91-.91V181.92a.9.9,0,0,1,.91-.91h5a.9.9,0,0,1,.91.91Z" transform="translate(-209.18 -168.18)"/><path class="cls-3" d="M420.57,208.88V220a.9.9,0,0,1-.91.91h-4.9a.9.9,0,0,1-.91-.91V181.92a.9.9,0,0,1,.91-.91h2.57a1.23,1.23,0,0,1,1.2.86l.51,1.37a12.87,12.87,0,0,1,7.87-2.68c10.6,0,13.91,8.61,13.91,14.71,0,5.81-3.08,14.19-13.28,14.71H425.7A17.05,17.05,0,0,1,420.57,208.88Zm0-19.38v13.05a10.47,10.47,0,0,0,5.59,1.6c6.67,0,8-6.27,8-8.89,0-2.22-.91-8.89-7.53-8.89A6.8,6.8,0,0,0,420.57,189.5Z" transform="translate(-209.18 -168.18)"/></g></svg>